<?xml version="1.0" encoding="UTF-8"?>
<svg width="37px" height="33px" viewBox="0 0 37 33" version="1.1" xmlns="http://www.w3.org/2000/svg" xmlns:xlink="http://www.w3.org/1999/xlink">
    <!-- Generator: Sketch 50.2 (55047) - http://www.bohemiancoding.com/sketch -->
    <title>Group 2</title>
    <desc>Created with Sketch.</desc>
    <defs></defs>
    <g id="Page-1" stroke="none" stroke-width="1" fill="none" fill-rule="evenodd">
        <g id="SketchAppSources.com---Landing-Page-by-Gita-Adi-Ramdhani-" transform="translate(-282.000000, -24.000000)">
            <g id="Top-Header">
                <g id="Search-Field" transform="translate(267.000000, 15.000000)">
                    <g id="Group-2" transform="translate(15.000000, 10.000000)">
                        <path d="M36,0 L36,31" id="Line" stroke="#CCA61F" stroke-linecap="square"></path>
                        <path d="M14.0049869,17.4002672 C14.0747723,17.4418601 14.1405393,17.4926489 14.2005102,17.5526198 L19.7742208,23.1263303 C20.1657068,23.5178164 20.1653392,24.1529084 19.7746516,24.543596 L19.543596,24.7746516 C19.1523478,25.1658998 18.5166051,25.1644955 18.1263303,24.7742208 L12.5526198,19.2005102 C12.4926031,19.1404935 12.4417958,19.0747515 12.4001926,19.0050424 C11.106872,19.96714 9.50403694,20.5364601 7.76823006,20.5364601 C3.47795507,20.5364601 0,17.0585051 0,12.7682301 C0,8.47795507 3.47795507,5 7.76823006,5 C12.0585051,5 15.5364601,8.47795507 15.5364601,12.7682301 C15.5364601,14.5040703 14.9671181,16.1069337 14.0049869,17.4002672 Z M7.76823006,18.9828141 C11.2004501,18.9828141 13.9828141,16.2004501 13.9828141,12.7682301 C13.9828141,9.33601007 11.2004501,6.55364601 7.76823006,6.55364601 C4.33601007,6.55364601 1.55364601,9.33601007 1.55364601,12.7682301 C1.55364601,16.2004501 4.33601007,18.9828141 7.76823006,18.9828141 Z" id="Search-Icon" fill="#CCA61F"></path>
                    </g>
                </g>
            </g>
        </g>
    </g>
</svg>