<?xml version="1.0" encoding="UTF-8"?>
<svg width="21px" height="21px" viewBox="0 0 21 21" version="1.1" xmlns="http://www.w3.org/2000/svg" xmlns:xlink="http://www.w3.org/1999/xlink">
    <!-- Generator: Sketch 50.2 (55047) - http://www.bohemiancoding.com/sketch -->
    <title>Search Icon</title>
    <desc>Created with Sketch.</desc>
    <defs></defs>
    <g id="Page-1" stroke="none" stroke-width="1" fill="none" fill-rule="evenodd">
        <g id="SketchAppSources.com---Landing-Page-by-Gita-Adi-Ramdhani-" transform="translate(-282.000000, -30.000000)" fill="#CCA61F">
            <g id="Top-Header">
                <g id="Search-Field" transform="translate(267.000000, 15.000000)">
                    <path d="M29.0049869,27.4002672 C29.0747723,27.4418601 29.1405393,27.4926489 29.2005102,27.5526198 L34.7742208,33.1263303 C35.1657068,33.5178164 35.1653392,34.1529084 34.7746516,34.543596 L34.543596,34.7746516 C34.1523478,35.1658998 33.5166051,35.1644955 33.1263303,34.7742208 L27.5526198,29.2005102 C27.4926031,29.1404935 27.4417958,29.0747515 27.4001926,29.0050424 C26.106872,29.96714 24.5040369,30.5364601 22.7682301,30.5364601 C18.4779551,30.5364601 15,27.0585051 15,22.7682301 C15,18.4779551 18.4779551,15 22.7682301,15 C27.0585051,15 30.5364601,18.4779551 30.5364601,22.7682301 C30.5364601,24.5040703 29.9671181,26.1069337 29.0049869,27.4002672 Z M22.7682301,28.9828141 C26.2004501,28.9828141 28.9828141,26.2004501 28.9828141,22.7682301 C28.9828141,19.3360101 26.2004501,16.553646 22.7682301,16.553646 C19.3360101,16.553646 16.553646,19.3360101 16.553646,22.7682301 C16.553646,26.2004501 19.3360101,28.9828141 22.7682301,28.9828141 Z" id="Search-Icon"></path>
                </g>
            </g>
        </g>
    </g>
</svg>