<?xml version="1.0" encoding="UTF-8"?><svg width="2207" height="770" viewBox="0 0 2207 770" xmlns="http://www.w3.org/2000/svg" xmlns:xlink="http://www.w3.org/1999/xlink"><svg width="166" height="58" viewBox="-5 -5 166 58" id="logo" xmlns="http://www.w3.org/2000/svg"><g fill="none" fill-rule="evenodd"><g fill="#000"><path d="M39.252 24c2.578-2.68 4.342-5.334 4.964-7.662.43-1.607.307-3.003-.36-4.159-1.133-1.959-3.7-2.995-7.422-2.995-1.747 0-3.666.233-5.68.667C28.904 4.052 25.924.358 22.5.358c-3.424 0-6.404 3.694-8.25 9.49-2.015-.434-3.932-.666-5.681-.666-3.725 0-6.292 1.036-7.423 2.994C.48 13.33.36 14.73.787 16.335 1.41 18.666 3.17 21.319 5.747 24c-2.577 2.68-4.34 5.337-4.963 7.662-.43 1.607-.307 3.006.36 4.159 1.133 1.959 3.7 2.995 7.422 2.995 1.747 0 3.666-.233 5.68-.664 1.85 5.796 4.83 9.49 8.254 9.49 3.424 0 6.404-3.694 8.25-9.49 2.015.434 3.935.666 5.681.666 3.723 0 6.29-1.036 7.423-2.994.666-1.153.786-2.553.359-4.159-.622-2.328-2.383-4.984-4.96-7.665zm-2.82-13.744c3.272 0 5.58.874 6.495 2.46.519.899.602 2.02.25 3.342-.568 2.133-2.24 4.629-4.686 7.173-1.727-1.694-3.767-3.387-6.055-5.005-.279-2.666-.751-5.143-1.379-7.348 1.909-.406 3.722-.622 5.374-.622zm-9.348 21.669a50.63 50.63 0 0 1-4.584 2.34 50.63 50.63 0 0 1-4.584-2.34 60.043 60.043 0 0 1-4.325-2.745 52.09 52.09 0 0 1-.257-5.18c0-1.777.092-3.512.257-5.18a59.42 59.42 0 0 1 4.325-2.745 50.962 50.962 0 0 1 4.581-2.34 50.537 50.537 0 0 1 4.584 2.34c1.51.87 2.958 1.793 4.323 2.745.167 1.671.256 3.405.256 5.18 0 1.777-.092 3.509-.256 5.18a60.277 60.277 0 0 1-4.32 2.745zm4.163-1.335a42.226 42.226 0 0 1-1.278 6.283 43.188 43.188 0 0 1-6.144-2.037 50.813 50.813 0 0 0 3.79-1.982 60.858 60.858 0 0 0 3.632-2.264zm-10.072 4.246a43.188 43.188 0 0 1-6.144 2.037 42.266 42.266 0 0 1-1.278-6.286 62.39 62.39 0 0 0 3.633 2.267 50.26 50.26 0 0 0 3.789 1.982zm-8.742-6.487C10.505 26.933 8.764 25.464 7.27 24c1.495-1.467 3.237-2.936 5.165-4.352A56.597 56.597 0 0 0 12.269 24a55.084 55.084 0 0 0 .164 4.349zm1.32-10.94c.29-2.258.728-4.374 1.278-6.282 1.989.49 4.062 1.175 6.144 2.037a50.813 50.813 0 0 0-3.79 1.982 60.858 60.858 0 0 0-3.632 2.264zm10.075-4.245a43.523 43.523 0 0 1 6.144-2.037c.55 1.908.988 4.024 1.278 6.283a63.283 63.283 0 0 0-3.63-2.267 51.976 51.976 0 0 0-3.792-1.979zm8.74 6.484c1.927 1.416 3.668 2.885 5.163 4.352-1.495 1.467-3.236 2.936-5.164 4.352a56.578 56.578 0 0 0 0-8.704zM22.5 1.433c2.86 0 5.46 3.428 7.157 8.667-2.32.573-4.74 1.407-7.157 2.462-2.416-1.055-4.838-1.889-7.157-2.462 1.696-5.24 4.297-8.667 7.157-8.667zM2.07 12.716c.919-1.586 3.223-2.46 6.496-2.46 1.652 0 3.465.213 5.371.62-.628 2.207-1.1 4.681-1.378 7.35-2.288 1.618-4.33 3.311-6.055 5.005-2.447-2.544-4.118-5.038-4.688-7.173-.348-1.318-.265-2.443.254-3.342zm6.499 25.028c-3.273 0-5.58-.874-6.496-2.46-.519-.899-.602-2.024-.25-3.342.568-2.133 2.24-4.629 4.686-7.173 1.725 1.694 3.767 3.387 6.055 5.005.279 2.666.751 5.143 1.379 7.35-1.909.404-3.722.62-5.374.62zM22.5 46.567c-2.86 0-5.46-3.428-7.157-8.667 2.32-.573 4.74-1.407 7.157-2.462 2.416 1.055 4.838 1.889 7.157 2.462-1.696 5.24-4.297 8.667-7.157 8.667zm20.43-11.283c-.919 1.586-3.223 2.46-6.496 2.46-1.652 0-3.465-.213-5.374-.62.628-2.207 1.1-4.684 1.379-7.35 2.287-1.618 4.33-3.311 6.055-5.005 2.446 2.542 4.117 5.038 4.687 7.17.351 1.321.268 2.446-.251 3.345z"/><path d="M22.5 27.518A3.523 3.523 0 0 1 18.979 24c0-1.94 1.579-3.518 3.521-3.518A3.521 3.521 0 0 1 26.019 24a3.521 3.521 0 0 1-3.519 3.518zm0-5.961A2.45 2.45 0 0 0 20.05 24a2.448 2.448 0 0 0 4.897 0 2.446 2.446 0 0 0-2.447-2.443z"/></g><text font-family="HelveticaNeue-Light, Helvetica Neue" font-size="24" font-weight="300" fill="#363C44"><tspan x="60" y="33">Cognitive</tspan></text></g></svg><svg width="31" height="31" viewBox="-5 -5 31 31" id="search-icon" x="166" y="58" xmlns="http://www.w3.org/2000/svg"><path d="M14.005 12.4c.07.042.136.093.196.153l5.573 5.573a1.003 1.003 0 0 1 0 1.418l-.23.23a1.003 1.003 0 0 1-1.418 0l-5.573-5.573c-.06-.06-.111-.126-.153-.196a7.768 7.768 0 1 1 1.605-1.605zm-6.237 1.583a6.215 6.215 0 1 0 0-12.43 6.215 6.215 0 0 0 0 12.43z" fill="#CCA61F" fill-rule="evenodd"/></svg><svg width="2010" height="680.93" viewBox="-8.61 -8.61 3460.22 1172.21" id="sprite" x="197" y="89" xmlns="http://www.w3.org/2000/svg"><svg width="166" height="58" viewBox="-5 -5 166 58"><g fill="none" fill-rule="evenodd"><g fill="#000"><path d="M39.252 24c2.578-2.68 4.342-5.334 4.964-7.662.43-1.607.307-3.003-.36-4.159-1.133-1.959-3.7-2.995-7.422-2.995-1.747 0-3.666.233-5.68.667C28.904 4.052 25.924.358 22.5.358c-3.424 0-6.404 3.694-8.25 9.49-2.015-.434-3.932-.666-5.681-.666-3.725 0-6.292 1.036-7.423 2.994C.48 13.33.36 14.73.787 16.335 1.41 18.666 3.17 21.319 5.747 24c-2.577 2.68-4.34 5.337-4.963 7.662-.43 1.607-.307 3.006.36 4.159 1.133 1.959 3.7 2.995 7.422 2.995 1.747 0 3.666-.233 5.68-.664 1.85 5.796 4.83 9.49 8.254 9.49 3.424 0 6.404-3.694 8.25-9.49 2.015.434 3.935.666 5.681.666 3.723 0 6.29-1.036 7.423-2.994.666-1.153.786-2.553.359-4.159-.622-2.328-2.383-4.984-4.96-7.665zm-2.82-13.744c3.272 0 5.58.874 6.495 2.46.519.899.602 2.02.25 3.342-.568 2.133-2.24 4.629-4.686 7.173-1.727-1.694-3.767-3.387-6.055-5.005-.279-2.666-.751-5.143-1.379-7.348 1.909-.406 3.722-.622 5.374-.622zm-9.348 21.669a50.63 50.63 0 0 1-4.584 2.34 50.63 50.63 0 0 1-4.584-2.34 60.043 60.043 0 0 1-4.325-2.745 52.09 52.09 0 0 1-.257-5.18c0-1.777.092-3.512.257-5.18a59.42 59.42 0 0 1 4.325-2.745 50.962 50.962 0 0 1 4.581-2.34 50.537 50.537 0 0 1 4.584 2.34c1.51.87 2.958 1.793 4.323 2.745.167 1.671.256 3.405.256 5.18 0 1.777-.092 3.509-.256 5.18a60.277 60.277 0 0 1-4.32 2.745zm4.163-1.335a42.226 42.226 0 0 1-1.278 6.283 43.188 43.188 0 0 1-6.144-2.037 50.813 50.813 0 0 0 3.79-1.982 60.858 60.858 0 0 0 3.632-2.264zm-10.072 4.246a43.188 43.188 0 0 1-6.144 2.037 42.266 42.266 0 0 1-1.278-6.286 62.39 62.39 0 0 0 3.633 2.267 50.26 50.26 0 0 0 3.789 1.982zm-8.742-6.487C10.505 26.933 8.764 25.464 7.27 24c1.495-1.467 3.237-2.936 5.165-4.352A56.597 56.597 0 0 0 12.269 24a55.084 55.084 0 0 0 .164 4.349zm1.32-10.94a42.22 42.22 0 0 1 1.278-6.282 43.164 43.164 0 0 1 6.144 2.037 50.813 50.813 0 0 0-3.79 1.982 60.858 60.858 0 0 0-3.632 2.264zm10.075-4.245a43.523 43.523 0 0 1 6.144-2.037c.55 1.908.988 4.024 1.278 6.283a63.283 63.283 0 0 0-3.63-2.267 51.976 51.976 0 0 0-3.792-1.979zm8.74 6.484c1.927 1.416 3.668 2.885 5.163 4.352-1.495 1.467-3.236 2.936-5.164 4.352a56.578 56.578 0 0 0 0-8.704zM22.5 1.433c2.86 0 5.46 3.428 7.157 8.667-2.32.573-4.74 1.407-7.157 2.462-2.416-1.055-4.838-1.889-7.157-2.462 1.696-5.24 4.297-8.667 7.157-8.667zM2.07 12.716c.919-1.586 3.223-2.46 6.496-2.46 1.652 0 3.465.213 5.371.62-.628 2.207-1.1 4.681-1.378 7.35-2.288 1.618-4.33 3.311-6.055 5.005-2.447-2.544-4.118-5.038-4.688-7.173-.348-1.318-.265-2.443.254-3.342zm6.499 25.028c-3.273 0-5.58-.874-6.496-2.46-.519-.899-.602-2.024-.25-3.342.568-2.133 2.24-4.629 4.686-7.173 1.725 1.694 3.767 3.387 6.055 5.005.279 2.666.751 5.143 1.379 7.35-1.909.404-3.722.62-5.374.62zM22.5 46.567c-2.86 0-5.46-3.428-7.157-8.667 2.32-.573 4.74-1.407 7.157-2.462 2.416 1.055 4.838 1.889 7.157 2.462-1.696 5.24-4.297 8.667-7.157 8.667zm20.43-11.283c-.919 1.586-3.223 2.46-6.496 2.46-1.652 0-3.465-.213-5.374-.62.628-2.207 1.1-4.684 1.379-7.35 2.287-1.618 4.33-3.311 6.055-5.005 2.446 2.542 4.117 5.038 4.687 7.17.351 1.321.268 2.446-.251 3.345z"/><path d="M22.5 27.518A3.523 3.523 0 0 1 18.979 24a3.523 3.523 0 0 1 3.521-3.518A3.521 3.521 0 0 1 26.019 24a3.521 3.521 0 0 1-3.519 3.518zm0-5.961A2.45 2.45 0 0 0 20.05 24a2.448 2.448 0 0 0 4.897 0 2.446 2.446 0 0 0-2.447-2.443z"/></g><text font-family="HelveticaNeue-Light, Helvetica Neue" font-size="24" font-weight="300" fill="#363C44"><tspan x="60" y="33">Cognitive</tspan></text></g></svg><svg width="1236" height="386" viewBox="-5 -5 1236 386" x="166" y="58"><g fill="#E6BB22" fill-rule="evenodd"><path d="M142.493 148H74.507A3.507 3.507 0 0 0 71 151.504v184.992A3.507 3.507 0 0 0 74.507 340h67.986a3.507 3.507 0 0 0 3.507-3.504V151.504a3.507 3.507 0 0 0-3.507-3.504zm-3.507 184.992h-60.96v-30.826h16.548a3.507 3.507 0 0 0 3.507-3.504 3.507 3.507 0 0 0-3.507-3.504H78.027v-14.015h16.547a3.507 3.507 0 0 0 3.507-3.504 3.507 3.507 0 0 0-3.507-3.504H78.027V260.12h16.547a3.507 3.507 0 0 0 3.507-3.503 3.507 3.507 0 0 0-3.507-3.504H78.027v-14.015h16.547a3.507 3.507 0 0 0 3.507-3.504 3.507 3.507 0 0 0-3.507-3.504H78.027v-14.015h16.547a3.507 3.507 0 0 0 3.507-3.503 3.507 3.507 0 0 0-3.507-3.504H78.027v-14.015h16.547a3.507 3.507 0 0 0 3.507-3.504 3.507 3.507 0 0 0-3.507-3.504H78.027V176.03h16.547a3.507 3.507 0 0 0 3.507-3.504 3.507 3.507 0 0 0-3.507-3.503H78.027v-14.015h60.971v177.984h-.012zM972 176a4 4 0 1 1 0-8 4 4 0 0 1 0 8zm60 120a4 4 0 1 1 0-8 4 4 0 0 1 0 8zm-80 10a4 4 0 1 1 0-8 4 4 0 0 1 0 8zm-70-70a4 4 0 1 1 0-8 4 4 0 0 1 0 8zm140-122a2 2 0 1 1 0-4 2 2 0 0 1 0 4zM912 84a2 2 0 1 1 0-4 2 2 0 0 1 0 4zm0 61a2 2 0 1 1 0-4 2 2 0 0 1 0 4zm-90 0a2 2 0 1 1 0-4 2 2 0 0 1 0 4zm0-67a2 2 0 1 1 0-4 2 2 0 0 1 0 4zm260 0a2 2 0 1 1 0-4 2 2 0 0 1 0 4zM952 4a2 2 0 1 1 0-4 2 2 0 0 1 0 4z"/><path d="M112 176a4 4 0 1 0 0-8 4 4 0 0 0 0 8zM52 296a4 4 0 1 0 0-8 4 4 0 0 0 0 8zm80 10a4 4 0 1 0 0-8 4 4 0 0 0 0 8zm70-70a4 4 0 1 0 0-8 4 4 0 0 0 0 8zM62 114a2 2 0 1 0 0-4 2 2 0 0 0 0 4zm110-30a2 2 0 1 0 0-4 2 2 0 0 0 0 4zm0 61a2 2 0 1 0 0-4 2 2 0 0 0 0 4zm90 0a2 2 0 1 0 0-4 2 2 0 0 0 0 4zm0-67a2 2 0 1 0 0-4 2 2 0 0 0 0 4zM2 78a2 2 0 1 0 0-4 2 2 0 0 0 0 4zM132 4a2 2 0 1 0 0-4 2 2 0 0 0 0 4zm250 196a4 4 0 1 1 0 8 4 4 0 0 1 0-8zM322 80a4 4 0 1 1 0 8 4 4 0 0 1 0-8zm80-10a4 4 0 1 1 0 8 4 4 0 0 1 0-8zm70 70a4 4 0 1 1 0 8 4 4 0 0 1 0-8zM332 262a2 2 0 1 1 0 4 2 2 0 0 1 0-4zm110 30a2 2 0 1 1 0 4 2 2 0 0 1 0-4zm0-61a2 2 0 1 1 0 4 2 2 0 0 1 0-4zm90 0a2 2 0 1 1 0 4 2 2 0 0 1 0-4zm0 67a2 2 0 1 1 0 4 2 2 0 0 1 0-4zm-260 0a2 2 0 1 1 0 4 2 2 0 0 1 0-4zm130 74a2 2 0 1 1 0 4 2 2 0 0 1 0-4zm190-222a4 4 0 1 1 0 8 4 4 0 0 1 0-8zM532 30a4 4 0 1 1 0 8 4 4 0 0 1 0-8zm80-10a4 4 0 1 1 0 8 4 4 0 0 1 0-8zm70 70a4 4 0 1 1 0 8 4 4 0 0 1 0-8zM542 212a2 2 0 1 1 0 4 2 2 0 0 1 0-4zm110 30a2 2 0 1 1 0 4 2 2 0 0 1 0-4zm0-61a2 2 0 1 1 0 4 2 2 0 0 1 0-4zm90 0a2 2 0 1 1 0 4 2 2 0 0 1 0-4zm0 67a2 2 0 1 1 0 4 2 2 0 0 1 0-4zm-260 0a2 2 0 1 1 0 4 2 2 0 0 1 0-4zm130 74a2 2 0 1 1 0 4 2 2 0 0 1 0-4zm-451-57v75h43.42v-31.58H236V265h-75zm51.315 75L236 316.315h-23.685V340zm956.778-106.985c-3.547-.05-6.934 1.282-9.52 4.102l-.144-.145-35.157 34.715c-8.363 8.364-8.363 21.664 0 30.028 8.364 8.363 21.664 8.363 30.028 0l22.707-22.707-3.227-3.372-1.758 1.614-21.093 21.094c-6.637 6.636-16.657 6.636-23.293 0-6.637-6.637-6.637-16.657 0-23.293l35.156-34.715v-.145c3.242-3.605 9.355-3.301 13.187.145 3.66 3.297 3.657 9.234-.144 13.035l-35.156 34.715c-1.047 1.047-2.176 1.047-3.227 0-1.047-1.047-1.047-2.176 0-3.227l22.707-22.707-3.227-3.371-1.757 1.613-21.094 21.094c-2.703 2.703-2.703 7.258 0 9.961 2.703 2.703 7.258 2.703 9.961 0l35.156-34.715c5.574-5.574 5.57-14.633-.144-19.777-2.774-2.5-6.375-3.899-9.96-3.957v.015zm43.794 126.977c-1.797.026-3.513-.65-4.823-2.078l-.073.074-17.813-17.59c-4.237-4.237-4.237-10.976 0-15.214 4.238-4.237 10.976-4.237 15.214 0l11.505 11.505-1.635 1.709-.89-.818-10.688-10.688c-3.363-3.362-8.44-3.362-11.802 0-3.362 3.363-3.362 8.44 0 11.802l17.813 17.59v.073c1.642 1.826 4.74 1.672 6.681-.074 1.855-1.67 1.853-4.678-.073-6.604l-17.812-17.59c-.53-.53-1.103-.53-1.635 0-.53.531-.53 1.103 0 1.636l11.505 11.505-1.635 1.708-.89-.818-10.688-10.687c-1.37-1.37-1.37-3.678 0-5.047 1.37-1.37 3.677-1.37 5.047 0l17.812 17.589c2.824 2.824 2.822 7.414-.073 10.02a7.795 7.795 0 0 1-5.047 2.005v-.008zm-55.717-179.628c-1.483-1.526-3.485-2.398-5.779-2.3v-.122l-29.643-.187c-7.097 0-12.74 5.643-12.74 12.74 0 7.096 5.643 12.739 12.74 12.74h19.267l.062-2.8-1.431-.061h-17.898c-5.632 0-9.883-4.252-9.883-9.882 0-5.632 4.251-9.883 9.883-9.883l29.643.187.062-.061c2.905-.154 5.37 2.568 5.533 5.656.154 2.952-2.366 5.47-5.591 5.47l-29.644-.188c-.888 0-1.367-.479-1.37-1.369 0-.888.48-1.367 1.37-1.369h19.268l.06-2.8-1.43-.06h-17.898c-2.294 0-4.226 1.932-4.226 4.226 0 2.293 1.932 4.226 4.226 4.226l29.644.187c4.73 0 8.571-3.845 8.33-8.452-.117-2.237-1.051-4.359-2.548-5.905l-.006.007zm67.944-53.564c.58 2.049.334 4.219-.9 6.155l.107.061-14.66 25.767c-3.548 6.145-11.256 8.21-17.402 4.663-6.146-3.55-8.211-11.257-4.664-17.403l9.634-16.686 2.456 1.346-.663 1.27-8.95 15.5c-2.815 4.877-1.259 10.684 3.618 13.5 4.877 2.815 10.684 1.26 13.5-3.618l14.66-25.765.083-.023c1.586-2.439.46-5.934-2.132-7.62-2.479-1.61-5.92-.686-7.532 2.108l-14.66 25.765c-.444.77-.268 1.424.502 1.87.769.445 1.423.27 1.87-.5l9.634-16.687 2.454 1.347-.662 1.269-8.949 15.5c-1.147 1.987-3.787 2.694-5.773 1.548-1.986-1.147-2.694-3.787-1.547-5.773l14.66-25.766c2.365-4.096 7.616-5.5 11.484-2.988 1.88 1.22 3.25 3.09 3.84 5.159l-.008.002z"/></g></svg><svg width="31" height="31" viewBox="-5 -5 31 31" x="1402" y="444"><path d="M14.005 12.4c.07.042.136.093.196.153l5.573 5.573a1.003 1.003 0 0 1 0 1.418l-.23.23a1.003 1.003 0 0 1-1.418 0l-5.573-5.573a1.017 1.017 0 0 1-.153-.196 7.768 7.768 0 1 1 1.605-1.605zm-6.237 1.583a6.215 6.215 0 1 0 0-12.43 6.215 6.215 0 0 0 0 12.43z" fill="#CCA61F" fill-rule="evenodd"/></svg><svg width="2010" height="679.76" viewBox="-8.61 -8.61 3460.22 1170.21" x="1433" y="475"><svg width="166" height="58" viewBox="-5 -5 166 58"><g fill="none" fill-rule="evenodd"><g fill="#000"><path d="M39.252 24c2.578-2.68 4.342-5.334 4.964-7.662.43-1.607.307-3.003-.36-4.159-1.133-1.959-3.7-2.995-7.422-2.995-1.747 0-3.666.233-5.68.667C28.904 4.052 25.924.358 22.5.358c-3.424 0-6.404 3.694-8.25 9.49-2.015-.434-3.932-.666-5.681-.666-3.725 0-6.292 1.036-7.423 2.994C.48 13.33.36 14.73.787 16.335 1.41 18.666 3.17 21.319 5.747 24c-2.577 2.68-4.34 5.337-4.963 7.662-.43 1.607-.307 3.006.36 4.159 1.133 1.959 3.7 2.995 7.422 2.995 1.747 0 3.666-.233 5.68-.664 1.85 5.796 4.83 9.49 8.254 9.49 3.424 0 6.404-3.694 8.25-9.49 2.015.434 3.935.666 5.681.666 3.723 0 6.29-1.036 7.423-2.994.666-1.153.786-2.553.359-4.159-.622-2.328-2.383-4.984-4.96-7.665zm-2.82-13.744c3.272 0 5.58.874 6.495 2.46.519.899.602 2.02.25 3.342-.568 2.133-2.24 4.629-4.686 7.173-1.727-1.694-3.767-3.387-6.055-5.005-.279-2.666-.751-5.143-1.379-7.348 1.909-.406 3.722-.622 5.374-.622zm-9.348 21.669a50.63 50.63 0 0 1-4.584 2.34 50.63 50.63 0 0 1-4.584-2.34 60.043 60.043 0 0 1-4.325-2.745 52.09 52.09 0 0 1-.257-5.18c0-1.777.092-3.512.257-5.18a59.42 59.42 0 0 1 4.325-2.745 50.962 50.962 0 0 1 4.581-2.34 50.537 50.537 0 0 1 4.584 2.34c1.51.87 2.958 1.793 4.323 2.745.167 1.671.256 3.405.256 5.18 0 1.777-.092 3.509-.256 5.18a60.277 60.277 0 0 1-4.32 2.745zm4.163-1.335a42.226 42.226 0 0 1-1.278 6.283 43.188 43.188 0 0 1-6.144-2.037 50.813 50.813 0 0 0 3.79-1.982 60.858 60.858 0 0 0 3.632-2.264zm-10.072 4.246a43.188 43.188 0 0 1-6.144 2.037 42.266 42.266 0 0 1-1.278-6.286 62.39 62.39 0 0 0 3.633 2.267 50.26 50.26 0 0 0 3.789 1.982zm-8.742-6.487C10.505 26.933 8.764 25.464 7.27 24c1.495-1.467 3.237-2.936 5.165-4.352A56.597 56.597 0 0 0 12.269 24a55.084 55.084 0 0 0 .164 4.349zm1.32-10.94a42.22 42.22 0 0 1 1.278-6.282 43.164 43.164 0 0 1 6.144 2.037 50.813 50.813 0 0 0-3.79 1.982 60.858 60.858 0 0 0-3.632 2.264zm10.075-4.245a43.523 43.523 0 0 1 6.144-2.037c.55 1.908.988 4.024 1.278 6.283a63.283 63.283 0 0 0-3.63-2.267 51.976 51.976 0 0 0-3.792-1.979zm8.74 6.484c1.927 1.416 3.668 2.885 5.163 4.352-1.495 1.467-3.236 2.936-5.164 4.352a56.578 56.578 0 0 0 0-8.704zM22.5 1.433c2.86 0 5.46 3.428 7.157 8.667-2.32.573-4.74 1.407-7.157 2.462-2.416-1.055-4.838-1.889-7.157-2.462 1.696-5.24 4.297-8.667 7.157-8.667zM2.07 12.716c.919-1.586 3.223-2.46 6.496-2.46 1.652 0 3.465.213 5.371.62-.628 2.207-1.1 4.681-1.378 7.35-2.288 1.618-4.33 3.311-6.055 5.005-2.447-2.544-4.118-5.038-4.688-7.173-.348-1.318-.265-2.443.254-3.342zm6.499 25.028c-3.273 0-5.58-.874-6.496-2.46-.519-.899-.602-2.024-.25-3.342.568-2.133 2.24-4.629 4.686-7.173 1.725 1.694 3.767 3.387 6.055 5.005.279 2.666.751 5.143 1.379 7.35-1.909.404-3.722.62-5.374.62zM22.5 46.567c-2.86 0-5.46-3.428-7.157-8.667 2.32-.573 4.74-1.407 7.157-2.462 2.416 1.055 4.838 1.889 7.157 2.462-1.696 5.24-4.297 8.667-7.157 8.667zm20.43-11.283c-.919 1.586-3.223 2.46-6.496 2.46-1.652 0-3.465-.213-5.374-.62.628-2.207 1.1-4.684 1.379-7.35 2.287-1.618 4.33-3.311 6.055-5.005 2.446 2.542 4.117 5.038 4.687 7.17.351 1.321.268 2.446-.251 3.345z"/><path d="M22.5 27.518A3.523 3.523 0 0 1 18.979 24a3.523 3.523 0 0 1 3.521-3.518A3.521 3.521 0 0 1 26.019 24a3.521 3.521 0 0 1-3.519 3.518zm0-5.961A2.45 2.45 0 0 0 20.05 24a2.448 2.448 0 0 0 4.897 0 2.446 2.446 0 0 0-2.447-2.443z"/></g><text font-family="HelveticaNeue-Light, Helvetica Neue" font-size="24" font-weight="300" fill="#363C44"><tspan x="60" y="33">Cognitive</tspan></text></g></svg><svg width="1236" height="386" viewBox="-5 -5 1236 386" x="166" y="58"><g fill="#E6BB22" fill-rule="evenodd"><path d="M142.493 148H74.507A3.507 3.507 0 0 0 71 151.504v184.992A3.507 3.507 0 0 0 74.507 340h67.986a3.507 3.507 0 0 0 3.507-3.504V151.504a3.507 3.507 0 0 0-3.507-3.504zm-3.507 184.992h-60.96v-30.826h16.548a3.507 3.507 0 0 0 3.507-3.504 3.507 3.507 0 0 0-3.507-3.504H78.027v-14.015h16.547a3.507 3.507 0 0 0 3.507-3.504 3.507 3.507 0 0 0-3.507-3.504H78.027V260.12h16.547a3.507 3.507 0 0 0 3.507-3.503 3.507 3.507 0 0 0-3.507-3.504H78.027v-14.015h16.547a3.507 3.507 0 0 0 3.507-3.504 3.507 3.507 0 0 0-3.507-3.504H78.027v-14.015h16.547a3.507 3.507 0 0 0 3.507-3.503 3.507 3.507 0 0 0-3.507-3.504H78.027v-14.015h16.547a3.507 3.507 0 0 0 3.507-3.504 3.507 3.507 0 0 0-3.507-3.504H78.027V176.03h16.547a3.507 3.507 0 0 0 3.507-3.504 3.507 3.507 0 0 0-3.507-3.503H78.027v-14.015h60.971v177.984h-.012zM972 176a4 4 0 1 1 0-8 4 4 0 0 1 0 8zm60 120a4 4 0 1 1 0-8 4 4 0 0 1 0 8zm-80 10a4 4 0 1 1 0-8 4 4 0 0 1 0 8zm-70-70a4 4 0 1 1 0-8 4 4 0 0 1 0 8zm140-122a2 2 0 1 1 0-4 2 2 0 0 1 0 4zM912 84a2 2 0 1 1 0-4 2 2 0 0 1 0 4zm0 61a2 2 0 1 1 0-4 2 2 0 0 1 0 4zm-90 0a2 2 0 1 1 0-4 2 2 0 0 1 0 4zm0-67a2 2 0 1 1 0-4 2 2 0 0 1 0 4zm260 0a2 2 0 1 1 0-4 2 2 0 0 1 0 4zM952 4a2 2 0 1 1 0-4 2 2 0 0 1 0 4z"/><path d="M112 176a4 4 0 1 0 0-8 4 4 0 0 0 0 8zM52 296a4 4 0 1 0 0-8 4 4 0 0 0 0 8zm80 10a4 4 0 1 0 0-8 4 4 0 0 0 0 8zm70-70a4 4 0 1 0 0-8 4 4 0 0 0 0 8zM62 114a2 2 0 1 0 0-4 2 2 0 0 0 0 4zm110-30a2 2 0 1 0 0-4 2 2 0 0 0 0 4zm0 61a2 2 0 1 0 0-4 2 2 0 0 0 0 4zm90 0a2 2 0 1 0 0-4 2 2 0 0 0 0 4zm0-67a2 2 0 1 0 0-4 2 2 0 0 0 0 4zM2 78a2 2 0 1 0 0-4 2 2 0 0 0 0 4zM132 4a2 2 0 1 0 0-4 2 2 0 0 0 0 4zm250 196a4 4 0 1 1 0 8 4 4 0 0 1 0-8zM322 80a4 4 0 1 1 0 8 4 4 0 0 1 0-8zm80-10a4 4 0 1 1 0 8 4 4 0 0 1 0-8zm70 70a4 4 0 1 1 0 8 4 4 0 0 1 0-8zM332 262a2 2 0 1 1 0 4 2 2 0 0 1 0-4zm110 30a2 2 0 1 1 0 4 2 2 0 0 1 0-4zm0-61a2 2 0 1 1 0 4 2 2 0 0 1 0-4zm90 0a2 2 0 1 1 0 4 2 2 0 0 1 0-4zm0 67a2 2 0 1 1 0 4 2 2 0 0 1 0-4zm-260 0a2 2 0 1 1 0 4 2 2 0 0 1 0-4zm130 74a2 2 0 1 1 0 4 2 2 0 0 1 0-4zm190-222a4 4 0 1 1 0 8 4 4 0 0 1 0-8zM532 30a4 4 0 1 1 0 8 4 4 0 0 1 0-8zm80-10a4 4 0 1 1 0 8 4 4 0 0 1 0-8zm70 70a4 4 0 1 1 0 8 4 4 0 0 1 0-8zM542 212a2 2 0 1 1 0 4 2 2 0 0 1 0-4zm110 30a2 2 0 1 1 0 4 2 2 0 0 1 0-4zm0-61a2 2 0 1 1 0 4 2 2 0 0 1 0-4zm90 0a2 2 0 1 1 0 4 2 2 0 0 1 0-4zm0 67a2 2 0 1 1 0 4 2 2 0 0 1 0-4zm-260 0a2 2 0 1 1 0 4 2 2 0 0 1 0-4zm130 74a2 2 0 1 1 0 4 2 2 0 0 1 0-4zm-451-57v75h43.42v-31.58H236V265h-75zm51.315 75L236 316.315h-23.685V340zm956.778-106.985c-3.547-.05-6.934 1.282-9.52 4.102l-.144-.145-35.157 34.715c-8.363 8.364-8.363 21.664 0 30.028 8.364 8.363 21.664 8.363 30.028 0l22.707-22.707-3.227-3.372-1.758 1.614-21.093 21.094c-6.637 6.636-16.657 6.636-23.293 0-6.637-6.637-6.637-16.657 0-23.293l35.156-34.715v-.145c3.242-3.605 9.355-3.301 13.187.145 3.66 3.297 3.657 9.234-.144 13.035l-35.156 34.715c-1.047 1.047-2.176 1.047-3.227 0-1.047-1.047-1.047-2.176 0-3.227l22.707-22.707-3.227-3.371-1.757 1.613-21.094 21.094c-2.703 2.703-2.703 7.258 0 9.961 2.703 2.703 7.258 2.703 9.961 0l35.156-34.715c5.574-5.574 5.57-14.633-.144-19.777-2.774-2.5-6.375-3.899-9.96-3.957v.015zm43.794 126.977c-1.797.026-3.513-.65-4.823-2.078l-.073.074-17.813-17.59c-4.237-4.237-4.237-10.976 0-15.214 4.238-4.237 10.976-4.237 15.214 0l11.505 11.505-1.635 1.709-.89-.818-10.688-10.688c-3.363-3.362-8.44-3.362-11.802 0-3.362 3.363-3.362 8.44 0 11.802l17.813 17.59v.073c1.642 1.826 4.74 1.672 6.681-.074 1.855-1.67 1.853-4.678-.073-6.604l-17.812-17.59c-.53-.53-1.103-.53-1.635 0-.53.531-.53 1.103 0 1.636l11.505 11.505-1.635 1.708-.89-.818-10.688-10.687c-1.37-1.37-1.37-3.678 0-5.047 1.37-1.37 3.677-1.37 5.047 0l17.812 17.589c2.824 2.824 2.822 7.414-.073 10.02a7.795 7.795 0 0 1-5.047 2.005v-.008zm-55.717-179.628c-1.483-1.526-3.485-2.398-5.779-2.3v-.122l-29.643-.187c-7.097 0-12.74 5.643-12.74 12.74 0 7.096 5.643 12.739 12.74 12.74h19.267l.062-2.8-1.431-.061h-17.898c-5.632 0-9.883-4.252-9.883-9.882 0-5.632 4.251-9.883 9.883-9.883l29.643.187.062-.061c2.905-.154 5.37 2.568 5.533 5.656.154 2.952-2.366 5.47-5.591 5.47l-29.644-.188c-.888 0-1.367-.479-1.37-1.369 0-.888.48-1.367 1.37-1.369h19.268l.06-2.8-1.43-.06h-17.898c-2.294 0-4.226 1.932-4.226 4.226 0 2.293 1.932 4.226 4.226 4.226l29.644.187c4.73 0 8.571-3.845 8.33-8.452-.117-2.237-1.051-4.359-2.548-5.905l-.006.007zm67.944-53.564c.58 2.049.334 4.219-.9 6.155l.107.061-14.66 25.767c-3.548 6.145-11.256 8.21-17.402 4.663-6.146-3.55-8.211-11.257-4.664-17.403l9.634-16.686 2.456 1.346-.663 1.27-8.95 15.5c-2.815 4.877-1.259 10.684 3.618 13.5 4.877 2.815 10.684 1.26 13.5-3.618l14.66-25.765.083-.023c1.586-2.439.46-5.934-2.132-7.62-2.479-1.61-5.92-.686-7.532 2.108l-14.66 25.765c-.444.77-.268 1.424.502 1.87.769.445 1.423.27 1.87-.5l9.634-16.687 2.454 1.347-.662 1.269-8.949 15.5c-1.147 1.987-3.787 2.694-5.773 1.548-1.986-1.147-2.694-3.787-1.547-5.773l14.66-25.766c2.365-4.096 7.616-5.5 11.484-2.988 1.88 1.22 3.25 3.09 3.84 5.159l-.008.002z"/></g></svg><svg width="31" height="31" viewBox="-5 -5 31 31" x="1402" y="444"><path d="M14.005 12.4c.07.042.136.093.196.153l5.573 5.573a1.003 1.003 0 0 1 0 1.418l-.23.23a1.003 1.003 0 0 1-1.418 0l-5.573-5.573a1.017 1.017 0 0 1-.153-.196 7.768 7.768 0 1 1 1.605-1.605zm-6.237 1.583a6.215 6.215 0 1 0 0-12.43 6.215 6.215 0 0 0 0 12.43z" fill="#CCA61F" fill-rule="evenodd"/></svg><svg width="2010" height="677.59" viewBox="-7.19 -7.19 2890.38 974.38" x="1433" y="475"><svg width="166" height="58" viewBox="-5 -5 166 58"><g fill="none" fill-rule="evenodd"><g fill="#000"><path d="M39.252 24c2.578-2.68 4.342-5.334 4.964-7.662.43-1.607.307-3.003-.36-4.159-1.133-1.959-3.7-2.995-7.422-2.995-1.747 0-3.666.233-5.68.667C28.904 4.052 25.924.358 22.5.358c-3.424 0-6.404 3.694-8.25 9.49-2.015-.434-3.932-.666-5.681-.666-3.725 0-6.292 1.036-7.423 2.994C.48 13.33.36 14.73.787 16.335 1.41 18.666 3.17 21.319 5.747 24c-2.577 2.68-4.34 5.337-4.963 7.662-.43 1.607-.307 3.006.36 4.159 1.133 1.959 3.7 2.995 7.422 2.995 1.747 0 3.666-.233 5.68-.664 1.85 5.796 4.83 9.49 8.254 9.49 3.424 0 6.404-3.694 8.25-9.49 2.015.434 3.935.666 5.681.666 3.723 0 6.29-1.036 7.423-2.994.666-1.153.786-2.553.359-4.159-.622-2.328-2.383-4.984-4.96-7.665zm-2.82-13.744c3.272 0 5.58.874 6.495 2.46.519.899.602 2.02.25 3.342-.568 2.133-2.24 4.629-4.686 7.173-1.727-1.694-3.767-3.387-6.055-5.005-.279-2.666-.751-5.143-1.379-7.348 1.909-.406 3.722-.622 5.374-.622zm-9.348 21.669a50.63 50.63 0 0 1-4.584 2.34 50.63 50.63 0 0 1-4.584-2.34 60.043 60.043 0 0 1-4.325-2.745 52.09 52.09 0 0 1-.257-5.18c0-1.777.092-3.512.257-5.18a59.42 59.42 0 0 1 4.325-2.745 50.962 50.962 0 0 1 4.581-2.34 50.537 50.537 0 0 1 4.584 2.34c1.51.87 2.958 1.793 4.323 2.745.167 1.671.256 3.405.256 5.18 0 1.777-.092 3.509-.256 5.18a60.277 60.277 0 0 1-4.32 2.745zm4.163-1.335a42.226 42.226 0 0 1-1.278 6.283 43.188 43.188 0 0 1-6.144-2.037 50.813 50.813 0 0 0 3.79-1.982 60.858 60.858 0 0 0 3.632-2.264zm-10.072 4.246a43.188 43.188 0 0 1-6.144 2.037 42.266 42.266 0 0 1-1.278-6.286 62.39 62.39 0 0 0 3.633 2.267 50.26 50.26 0 0 0 3.789 1.982zm-8.742-6.487C10.505 26.933 8.764 25.464 7.27 24c1.495-1.467 3.237-2.936 5.165-4.352A56.597 56.597 0 0 0 12.269 24a55.084 55.084 0 0 0 .164 4.349zm1.32-10.94a42.22 42.22 0 0 1 1.278-6.282 43.164 43.164 0 0 1 6.144 2.037 50.813 50.813 0 0 0-3.79 1.982 60.858 60.858 0 0 0-3.632 2.264zm10.075-4.245a43.523 43.523 0 0 1 6.144-2.037c.55 1.908.988 4.024 1.278 6.283a63.283 63.283 0 0 0-3.63-2.267 51.976 51.976 0 0 0-3.792-1.979zm8.74 6.484c1.927 1.416 3.668 2.885 5.163 4.352-1.495 1.467-3.236 2.936-5.164 4.352a56.578 56.578 0 0 0 0-8.704zM22.5 1.433c2.86 0 5.46 3.428 7.157 8.667-2.32.573-4.74 1.407-7.157 2.462-2.416-1.055-4.838-1.889-7.157-2.462 1.696-5.24 4.297-8.667 7.157-8.667zM2.07 12.716c.919-1.586 3.223-2.46 6.496-2.46 1.652 0 3.465.213 5.371.62-.628 2.207-1.1 4.681-1.378 7.35-2.288 1.618-4.33 3.311-6.055 5.005-2.447-2.544-4.118-5.038-4.688-7.173-.348-1.318-.265-2.443.254-3.342zm6.499 25.028c-3.273 0-5.58-.874-6.496-2.46-.519-.899-.602-2.024-.25-3.342.568-2.133 2.24-4.629 4.686-7.173 1.725 1.694 3.767 3.387 6.055 5.005.279 2.666.751 5.143 1.379 7.35-1.909.404-3.722.62-5.374.62zM22.5 46.567c-2.86 0-5.46-3.428-7.157-8.667 2.32-.573 4.74-1.407 7.157-2.462 2.416 1.055 4.838 1.889 7.157 2.462-1.696 5.24-4.297 8.667-7.157 8.667zm20.43-11.283c-.919 1.586-3.223 2.46-6.496 2.46-1.652 0-3.465-.213-5.374-.62.628-2.207 1.1-4.684 1.379-7.35 2.287-1.618 4.33-3.311 6.055-5.005 2.446 2.542 4.117 5.038 4.687 7.17.351 1.321.268 2.446-.251 3.345z"/><path d="M22.5 27.518A3.523 3.523 0 0 1 18.979 24a3.523 3.523 0 0 1 3.521-3.518A3.521 3.521 0 0 1 26.019 24a3.521 3.521 0 0 1-3.519 3.518zm0-5.961A2.45 2.45 0 0 0 20.05 24a2.448 2.448 0 0 0 4.897 0 2.446 2.446 0 0 0-2.447-2.443z"/></g><text font-family="HelveticaNeue-Light, Helvetica Neue" font-size="24" font-weight="300" fill="#363C44"><tspan x="60" y="33">Cognitive</tspan></text></g></svg><svg width="1236" height="386" viewBox="-5 -5 1236 386" x="166" y="58"><g fill="#E6BB22" fill-rule="evenodd"><path d="M142.493 148H74.507A3.507 3.507 0 0 0 71 151.504v184.992A3.507 3.507 0 0 0 74.507 340h67.986a3.507 3.507 0 0 0 3.507-3.504V151.504a3.507 3.507 0 0 0-3.507-3.504zm-3.507 184.992h-60.96v-30.826h16.548a3.507 3.507 0 0 0 3.507-3.504 3.507 3.507 0 0 0-3.507-3.504H78.027v-14.015h16.547a3.507 3.507 0 0 0 3.507-3.504 3.507 3.507 0 0 0-3.507-3.504H78.027V260.12h16.547a3.507 3.507 0 0 0 3.507-3.503 3.507 3.507 0 0 0-3.507-3.504H78.027v-14.015h16.547a3.507 3.507 0 0 0 3.507-3.504 3.507 3.507 0 0 0-3.507-3.504H78.027v-14.015h16.547a3.507 3.507 0 0 0 3.507-3.503 3.507 3.507 0 0 0-3.507-3.504H78.027v-14.015h16.547a3.507 3.507 0 0 0 3.507-3.504 3.507 3.507 0 0 0-3.507-3.504H78.027V176.03h16.547a3.507 3.507 0 0 0 3.507-3.504 3.507 3.507 0 0 0-3.507-3.503H78.027v-14.015h60.971v177.984h-.012zM972 176a4 4 0 1 1 0-8 4 4 0 0 1 0 8zm60 120a4 4 0 1 1 0-8 4 4 0 0 1 0 8zm-80 10a4 4 0 1 1 0-8 4 4 0 0 1 0 8zm-70-70a4 4 0 1 1 0-8 4 4 0 0 1 0 8zm140-122a2 2 0 1 1 0-4 2 2 0 0 1 0 4zM912 84a2 2 0 1 1 0-4 2 2 0 0 1 0 4zm0 61a2 2 0 1 1 0-4 2 2 0 0 1 0 4zm-90 0a2 2 0 1 1 0-4 2 2 0 0 1 0 4zm0-67a2 2 0 1 1 0-4 2 2 0 0 1 0 4zm260 0a2 2 0 1 1 0-4 2 2 0 0 1 0 4zM952 4a2 2 0 1 1 0-4 2 2 0 0 1 0 4z"/><path d="M112 176a4 4 0 1 0 0-8 4 4 0 0 0 0 8zM52 296a4 4 0 1 0 0-8 4 4 0 0 0 0 8zm80 10a4 4 0 1 0 0-8 4 4 0 0 0 0 8zm70-70a4 4 0 1 0 0-8 4 4 0 0 0 0 8zM62 114a2 2 0 1 0 0-4 2 2 0 0 0 0 4zm110-30a2 2 0 1 0 0-4 2 2 0 0 0 0 4zm0 61a2 2 0 1 0 0-4 2 2 0 0 0 0 4zm90 0a2 2 0 1 0 0-4 2 2 0 0 0 0 4zm0-67a2 2 0 1 0 0-4 2 2 0 0 0 0 4zM2 78a2 2 0 1 0 0-4 2 2 0 0 0 0 4zM132 4a2 2 0 1 0 0-4 2 2 0 0 0 0 4zm250 196a4 4 0 1 1 0 8 4 4 0 0 1 0-8zM322 80a4 4 0 1 1 0 8 4 4 0 0 1 0-8zm80-10a4 4 0 1 1 0 8 4 4 0 0 1 0-8zm70 70a4 4 0 1 1 0 8 4 4 0 0 1 0-8zM332 262a2 2 0 1 1 0 4 2 2 0 0 1 0-4zm110 30a2 2 0 1 1 0 4 2 2 0 0 1 0-4zm0-61a2 2 0 1 1 0 4 2 2 0 0 1 0-4zm90 0a2 2 0 1 1 0 4 2 2 0 0 1 0-4zm0 67a2 2 0 1 1 0 4 2 2 0 0 1 0-4zm-260 0a2 2 0 1 1 0 4 2 2 0 0 1 0-4zm130 74a2 2 0 1 1 0 4 2 2 0 0 1 0-4zm190-222a4 4 0 1 1 0 8 4 4 0 0 1 0-8zM532 30a4 4 0 1 1 0 8 4 4 0 0 1 0-8zm80-10a4 4 0 1 1 0 8 4 4 0 0 1 0-8zm70 70a4 4 0 1 1 0 8 4 4 0 0 1 0-8zM542 212a2 2 0 1 1 0 4 2 2 0 0 1 0-4zm110 30a2 2 0 1 1 0 4 2 2 0 0 1 0-4zm0-61a2 2 0 1 1 0 4 2 2 0 0 1 0-4zm90 0a2 2 0 1 1 0 4 2 2 0 0 1 0-4zm0 67a2 2 0 1 1 0 4 2 2 0 0 1 0-4zm-260 0a2 2 0 1 1 0 4 2 2 0 0 1 0-4zm130 74a2 2 0 1 1 0 4 2 2 0 0 1 0-4zm-451-57v75h43.42v-31.58H236V265h-75zm51.315 75L236 316.315h-23.685V340zm956.778-106.985c-3.547-.05-6.934 1.282-9.52 4.102l-.144-.145-35.157 34.715c-8.363 8.364-8.363 21.664 0 30.028 8.364 8.363 21.664 8.363 30.028 0l22.707-22.707-3.227-3.372-1.758 1.614-21.093 21.094c-6.637 6.636-16.657 6.636-23.293 0-6.637-6.637-6.637-16.657 0-23.293l35.156-34.715v-.145c3.242-3.605 9.355-3.301 13.187.145 3.66 3.297 3.657 9.234-.144 13.035l-35.156 34.715c-1.047 1.047-2.176 1.047-3.227 0-1.047-1.047-1.047-2.176 0-3.227l22.707-22.707-3.227-3.371-1.757 1.613-21.094 21.094c-2.703 2.703-2.703 7.258 0 9.961 2.703 2.703 7.258 2.703 9.961 0l35.156-34.715c5.574-5.574 5.57-14.633-.144-19.777-2.774-2.5-6.375-3.899-9.96-3.957v.015zm43.794 126.977c-1.797.026-3.513-.65-4.823-2.078l-.073.074-17.813-17.59c-4.237-4.237-4.237-10.976 0-15.214 4.238-4.237 10.976-4.237 15.214 0l11.505 11.505-1.635 1.709-.89-.818-10.688-10.688c-3.363-3.362-8.44-3.362-11.802 0-3.362 3.363-3.362 8.44 0 11.802l17.813 17.59v.073c1.642 1.826 4.74 1.672 6.681-.074 1.855-1.67 1.853-4.678-.073-6.604l-17.812-17.59c-.53-.53-1.103-.53-1.635 0-.53.531-.53 1.103 0 1.636l11.505 11.505-1.635 1.708-.89-.818-10.688-10.687c-1.37-1.37-1.37-3.678 0-5.047 1.37-1.37 3.677-1.37 5.047 0l17.812 17.589c2.824 2.824 2.822 7.414-.073 10.02a7.795 7.795 0 0 1-5.047 2.005v-.008zm-55.717-179.628c-1.483-1.526-3.485-2.398-5.779-2.3v-.122l-29.643-.187c-7.097 0-12.74 5.643-12.74 12.74 0 7.096 5.643 12.739 12.74 12.74h19.267l.062-2.8-1.431-.061h-17.898c-5.632 0-9.883-4.252-9.883-9.882 0-5.632 4.251-9.883 9.883-9.883l29.643.187.062-.061c2.905-.154 5.37 2.568 5.533 5.656.154 2.952-2.366 5.47-5.591 5.47l-29.644-.188c-.888 0-1.367-.479-1.37-1.369 0-.888.48-1.367 1.37-1.369h19.268l.06-2.8-1.43-.06h-17.898c-2.294 0-4.226 1.932-4.226 4.226 0 2.293 1.932 4.226 4.226 4.226l29.644.187c4.73 0 8.571-3.845 8.33-8.452-.117-2.237-1.051-4.359-2.548-5.905l-.006.007zm67.944-53.564c.58 2.049.334 4.219-.9 6.155l.107.061-14.66 25.767c-3.548 6.145-11.256 8.21-17.402 4.663-6.146-3.55-8.211-11.257-4.664-17.403l9.634-16.686 2.456 1.346-.663 1.27-8.95 15.5c-2.815 4.877-1.259 10.684 3.618 13.5 4.877 2.815 10.684 1.26 13.5-3.618l14.66-25.765.083-.023c1.586-2.439.46-5.934-2.132-7.62-2.479-1.61-5.92-.686-7.532 2.108l-14.66 25.765c-.444.77-.268 1.424.502 1.87.769.445 1.423.27 1.87-.5l9.634-16.687 2.454 1.347-.662 1.269-8.949 15.5c-1.147 1.987-3.787 2.694-5.773 1.548-1.986-1.147-2.694-3.787-1.547-5.773l14.66-25.766c2.365-4.096 7.616-5.5 11.484-2.988 1.88 1.22 3.25 3.09 3.84 5.159l-.008.002z"/></g></svg><svg width="31" height="31" viewBox="-5 -5 31 31" x="1402" y="444"><path d="M14.005 12.4c.07.042.136.093.196.153l5.573 5.573a1.003 1.003 0 0 1 0 1.418l-.23.23a1.003 1.003 0 0 1-1.418 0l-5.573-5.573a1.017 1.017 0 0 1-.153-.196 7.768 7.768 0 1 1 1.605-1.605zm-6.237 1.583a6.215 6.215 0 1 0 0-12.43 6.215 6.215 0 0 0 0 12.43z" fill="#CCA61F" fill-rule="evenodd"/></svg><svg width="1443" height="485" viewBox="-5 -5 1443 485" x="1433" y="475"><svg width="166" height="58" viewBox="-5 -5 166 58"><g fill="none" fill-rule="evenodd"><g fill="#000"><path d="M39.252 24c2.578-2.68 4.342-5.334 4.964-7.662.43-1.607.307-3.003-.36-4.159-1.133-1.959-3.7-2.995-7.422-2.995-1.747 0-3.666.233-5.68.667C28.904 4.052 25.924.358 22.5.358c-3.424 0-6.404 3.694-8.25 9.49-2.015-.434-3.932-.666-5.681-.666-3.725 0-6.292 1.036-7.423 2.994C.48 13.33.36 14.73.787 16.335 1.41 18.666 3.17 21.319 5.747 24c-2.577 2.68-4.34 5.337-4.963 7.662-.43 1.607-.307 3.006.36 4.159 1.133 1.959 3.7 2.995 7.422 2.995 1.747 0 3.666-.233 5.68-.664 1.85 5.796 4.83 9.49 8.254 9.49 3.424 0 6.404-3.694 8.25-9.49 2.015.434 3.935.666 5.681.666 3.723 0 6.29-1.036 7.423-2.994.666-1.153.786-2.553.359-4.159-.622-2.328-2.383-4.984-4.96-7.665zm-2.82-13.744c3.272 0 5.58.874 6.495 2.46.519.899.602 2.02.25 3.342-.568 2.133-2.24 4.629-4.686 7.173-1.727-1.694-3.767-3.387-6.055-5.005-.279-2.666-.751-5.143-1.379-7.348 1.909-.406 3.722-.622 5.374-.622zm-9.348 21.669a50.63 50.63 0 0 1-4.584 2.34 50.63 50.63 0 0 1-4.584-2.34 60.043 60.043 0 0 1-4.325-2.745 52.09 52.09 0 0 1-.257-5.18c0-1.777.092-3.512.257-5.18a59.42 59.42 0 0 1 4.325-2.745 50.962 50.962 0 0 1 4.581-2.34 50.537 50.537 0 0 1 4.584 2.34c1.51.87 2.958 1.793 4.323 2.745.167 1.671.256 3.405.256 5.18 0 1.777-.092 3.509-.256 5.18a60.277 60.277 0 0 1-4.32 2.745zm4.163-1.335a42.226 42.226 0 0 1-1.278 6.283 43.188 43.188 0 0 1-6.144-2.037 50.813 50.813 0 0 0 3.79-1.982 60.858 60.858 0 0 0 3.632-2.264zm-10.072 4.246a43.188 43.188 0 0 1-6.144 2.037 42.266 42.266 0 0 1-1.278-6.286 62.39 62.39 0 0 0 3.633 2.267 50.26 50.26 0 0 0 3.789 1.982zm-8.742-6.487C10.505 26.933 8.764 25.464 7.27 24c1.495-1.467 3.237-2.936 5.165-4.352A56.597 56.597 0 0 0 12.269 24a55.084 55.084 0 0 0 .164 4.349zm1.32-10.94a42.22 42.22 0 0 1 1.278-6.282 43.164 43.164 0 0 1 6.144 2.037 50.813 50.813 0 0 0-3.79 1.982 60.858 60.858 0 0 0-3.632 2.264zm10.075-4.245a43.523 43.523 0 0 1 6.144-2.037c.55 1.908.988 4.024 1.278 6.283a63.283 63.283 0 0 0-3.63-2.267 51.976 51.976 0 0 0-3.792-1.979zm8.74 6.484c1.927 1.416 3.668 2.885 5.163 4.352-1.495 1.467-3.236 2.936-5.164 4.352a56.578 56.578 0 0 0 0-8.704zM22.5 1.433c2.86 0 5.46 3.428 7.157 8.667-2.32.573-4.74 1.407-7.157 2.462-2.416-1.055-4.838-1.889-7.157-2.462 1.696-5.24 4.297-8.667 7.157-8.667zM2.07 12.716c.919-1.586 3.223-2.46 6.496-2.46 1.652 0 3.465.213 5.371.62-.628 2.207-1.1 4.681-1.378 7.35-2.288 1.618-4.33 3.311-6.055 5.005-2.447-2.544-4.118-5.038-4.688-7.173-.348-1.318-.265-2.443.254-3.342zm6.499 25.028c-3.273 0-5.58-.874-6.496-2.46-.519-.899-.602-2.024-.25-3.342.568-2.133 2.24-4.629 4.686-7.173 1.725 1.694 3.767 3.387 6.055 5.005.279 2.666.751 5.143 1.379 7.35-1.909.404-3.722.62-5.374.62zM22.5 46.567c-2.86 0-5.46-3.428-7.157-8.667 2.32-.573 4.74-1.407 7.157-2.462 2.416 1.055 4.838 1.889 7.157 2.462-1.696 5.24-4.297 8.667-7.157 8.667zm20.43-11.283c-.919 1.586-3.223 2.46-6.496 2.46-1.652 0-3.465-.213-5.374-.62.628-2.207 1.1-4.684 1.379-7.35 2.287-1.618 4.33-3.311 6.055-5.005 2.446 2.542 4.117 5.038 4.687 7.17.351 1.321.268 2.446-.251 3.345z"/><path d="M22.5 27.518A3.523 3.523 0 0 1 18.979 24a3.523 3.523 0 0 1 3.521-3.518A3.521 3.521 0 0 1 26.019 24a3.521 3.521 0 0 1-3.519 3.518zm0-5.961A2.45 2.45 0 0 0 20.05 24a2.448 2.448 0 0 0 4.897 0 2.446 2.446 0 0 0-2.447-2.443z"/></g><text font-family="HelveticaNeue-Light, Helvetica Neue" font-size="24" font-weight="300" fill="#363C44"><tspan x="60" y="33">Cognitive</tspan></text></g></svg><svg width="1236" height="386" viewBox="-5 -5 1236 386" x="166" y="58"><g fill="#E6BB22" fill-rule="evenodd"><path d="M142.493 148H74.507A3.507 3.507 0 0 0 71 151.504v184.992A3.507 3.507 0 0 0 74.507 340h67.986a3.507 3.507 0 0 0 3.507-3.504V151.504a3.507 3.507 0 0 0-3.507-3.504zm-3.507 184.992h-60.96v-30.826h16.548a3.507 3.507 0 0 0 3.507-3.504 3.507 3.507 0 0 0-3.507-3.504H78.027v-14.015h16.547a3.507 3.507 0 0 0 3.507-3.504 3.507 3.507 0 0 0-3.507-3.504H78.027V260.12h16.547a3.507 3.507 0 0 0 3.507-3.503 3.507 3.507 0 0 0-3.507-3.504H78.027v-14.015h16.547a3.507 3.507 0 0 0 3.507-3.504 3.507 3.507 0 0 0-3.507-3.504H78.027v-14.015h16.547a3.507 3.507 0 0 0 3.507-3.503 3.507 3.507 0 0 0-3.507-3.504H78.027v-14.015h16.547a3.507 3.507 0 0 0 3.507-3.504 3.507 3.507 0 0 0-3.507-3.504H78.027V176.03h16.547a3.507 3.507 0 0 0 3.507-3.504 3.507 3.507 0 0 0-3.507-3.503H78.027v-14.015h60.971v177.984h-.012zM972 176a4 4 0 1 1 0-8 4 4 0 0 1 0 8zm60 120a4 4 0 1 1 0-8 4 4 0 0 1 0 8zm-80 10a4 4 0 1 1 0-8 4 4 0 0 1 0 8zm-70-70a4 4 0 1 1 0-8 4 4 0 0 1 0 8zm140-122a2 2 0 1 1 0-4 2 2 0 0 1 0 4zM912 84a2 2 0 1 1 0-4 2 2 0 0 1 0 4zm0 61a2 2 0 1 1 0-4 2 2 0 0 1 0 4zm-90 0a2 2 0 1 1 0-4 2 2 0 0 1 0 4zm0-67a2 2 0 1 1 0-4 2 2 0 0 1 0 4zm260 0a2 2 0 1 1 0-4 2 2 0 0 1 0 4zM952 4a2 2 0 1 1 0-4 2 2 0 0 1 0 4z"/><path d="M112 176a4 4 0 1 0 0-8 4 4 0 0 0 0 8zM52 296a4 4 0 1 0 0-8 4 4 0 0 0 0 8zm80 10a4 4 0 1 0 0-8 4 4 0 0 0 0 8zm70-70a4 4 0 1 0 0-8 4 4 0 0 0 0 8zM62 114a2 2 0 1 0 0-4 2 2 0 0 0 0 4zm110-30a2 2 0 1 0 0-4 2 2 0 0 0 0 4zm0 61a2 2 0 1 0 0-4 2 2 0 0 0 0 4zm90 0a2 2 0 1 0 0-4 2 2 0 0 0 0 4zm0-67a2 2 0 1 0 0-4 2 2 0 0 0 0 4zM2 78a2 2 0 1 0 0-4 2 2 0 0 0 0 4zM132 4a2 2 0 1 0 0-4 2 2 0 0 0 0 4zm250 196a4 4 0 1 1 0 8 4 4 0 0 1 0-8zM322 80a4 4 0 1 1 0 8 4 4 0 0 1 0-8zm80-10a4 4 0 1 1 0 8 4 4 0 0 1 0-8zm70 70a4 4 0 1 1 0 8 4 4 0 0 1 0-8zM332 262a2 2 0 1 1 0 4 2 2 0 0 1 0-4zm110 30a2 2 0 1 1 0 4 2 2 0 0 1 0-4zm0-61a2 2 0 1 1 0 4 2 2 0 0 1 0-4zm90 0a2 2 0 1 1 0 4 2 2 0 0 1 0-4zm0 67a2 2 0 1 1 0 4 2 2 0 0 1 0-4zm-260 0a2 2 0 1 1 0 4 2 2 0 0 1 0-4zm130 74a2 2 0 1 1 0 4 2 2 0 0 1 0-4zm190-222a4 4 0 1 1 0 8 4 4 0 0 1 0-8zM532 30a4 4 0 1 1 0 8 4 4 0 0 1 0-8zm80-10a4 4 0 1 1 0 8 4 4 0 0 1 0-8zm70 70a4 4 0 1 1 0 8 4 4 0 0 1 0-8zM542 212a2 2 0 1 1 0 4 2 2 0 0 1 0-4zm110 30a2 2 0 1 1 0 4 2 2 0 0 1 0-4zm0-61a2 2 0 1 1 0 4 2 2 0 0 1 0-4zm90 0a2 2 0 1 1 0 4 2 2 0 0 1 0-4zm0 67a2 2 0 1 1 0 4 2 2 0 0 1 0-4zm-260 0a2 2 0 1 1 0 4 2 2 0 0 1 0-4zm130 74a2 2 0 1 1 0 4 2 2 0 0 1 0-4zm-451-57v75h43.42v-31.58H236V265h-75zm51.315 75L236 316.315h-23.685V340zm956.778-106.985c-3.547-.05-6.934 1.282-9.52 4.102l-.144-.145-35.157 34.715c-8.363 8.364-8.363 21.664 0 30.028 8.364 8.363 21.664 8.363 30.028 0l22.707-22.707-3.227-3.372-1.758 1.614-21.093 21.094c-6.637 6.636-16.657 6.636-23.293 0-6.637-6.637-6.637-16.657 0-23.293l35.156-34.715v-.145c3.242-3.605 9.355-3.301 13.187.145 3.66 3.297 3.657 9.234-.144 13.035l-35.156 34.715c-1.047 1.047-2.176 1.047-3.227 0-1.047-1.047-1.047-2.176 0-3.227l22.707-22.707-3.227-3.371-1.757 1.613-21.094 21.094c-2.703 2.703-2.703 7.258 0 9.961 2.703 2.703 7.258 2.703 9.961 0l35.156-34.715c5.574-5.574 5.57-14.633-.144-19.777-2.774-2.5-6.375-3.899-9.96-3.957v.015zm43.794 126.977c-1.797.026-3.513-.65-4.823-2.078l-.073.074-17.813-17.59c-4.237-4.237-4.237-10.976 0-15.214 4.238-4.237 10.976-4.237 15.214 0l11.505 11.505-1.635 1.709-.89-.818-10.688-10.688c-3.363-3.362-8.44-3.362-11.802 0-3.362 3.363-3.362 8.44 0 11.802l17.813 17.59v.073c1.642 1.826 4.74 1.672 6.681-.074 1.855-1.67 1.853-4.678-.073-6.604l-17.812-17.59c-.53-.53-1.103-.53-1.635 0-.53.531-.53 1.103 0 1.636l11.505 11.505-1.635 1.708-.89-.818-10.688-10.687c-1.37-1.37-1.37-3.678 0-5.047 1.37-1.37 3.677-1.37 5.047 0l17.812 17.589c2.824 2.824 2.822 7.414-.073 10.02a7.795 7.795 0 0 1-5.047 2.005v-.008zm-55.717-179.628c-1.483-1.526-3.485-2.398-5.779-2.3v-.122l-29.643-.187c-7.097 0-12.74 5.643-12.74 12.74 0 7.096 5.643 12.739 12.74 12.74h19.267l.062-2.8-1.431-.061h-17.898c-5.632 0-9.883-4.252-9.883-9.882 0-5.632 4.251-9.883 9.883-9.883l29.643.187.062-.061c2.905-.154 5.37 2.568 5.533 5.656.154 2.952-2.366 5.47-5.591 5.47l-29.644-.188c-.888 0-1.367-.479-1.37-1.369 0-.888.48-1.367 1.37-1.369h19.268l.06-2.8-1.43-.06h-17.898c-2.294 0-4.226 1.932-4.226 4.226 0 2.293 1.932 4.226 4.226 4.226l29.644.187c4.73 0 8.571-3.845 8.33-8.452-.117-2.237-1.051-4.359-2.548-5.905l-.006.007zm67.944-53.564c.58 2.049.334 4.219-.9 6.155l.107.061-14.66 25.767c-3.548 6.145-11.256 8.21-17.402 4.663-6.146-3.55-8.211-11.257-4.664-17.403l9.634-16.686 2.456 1.346-.663 1.27-8.95 15.5c-2.815 4.877-1.259 10.684 3.618 13.5 4.877 2.815 10.684 1.26 13.5-3.618l14.66-25.765.083-.023c1.586-2.439.46-5.934-2.132-7.62-2.479-1.61-5.92-.686-7.532 2.108l-14.66 25.765c-.444.77-.268 1.424.502 1.87.769.445 1.423.27 1.87-.5l9.634-16.687 2.454 1.347-.662 1.269-8.949 15.5c-1.147 1.987-3.787 2.694-5.773 1.548-1.986-1.147-2.694-3.787-1.547-5.773l14.66-25.766c2.365-4.096 7.616-5.5 11.484-2.988 1.88 1.22 3.25 3.09 3.84 5.159l-.008.002z"/></g></svg><svg width="31" height="31" viewBox="-5 -5 31 31" x="1402" y="444"><path d="M14.005 12.4c.07.042.136.093.196.153l5.573 5.573a1.003 1.003 0 0 1 0 1.418l-.23.23a1.003 1.003 0 0 1-1.418 0l-5.573-5.573a1.017 1.017 0 0 1-.153-.196 7.768 7.768 0 1 1 1.605-1.605zm-6.237 1.583a6.215 6.215 0 1 0 0-12.43 6.215 6.215 0 0 0 0 12.43z" fill="#CCA61F" fill-rule="evenodd"/></svg></svg></svg></svg></svg></svg>